# xmcd CD database file generated by OrangeCD 5.2
#
# Track frame offsets:
#	150
#	30840
#	77289
#	97632
#
# Disc length: 1864 seconds
#
# Revision: 0
# Processed by: cddbd v1.5.1PL0 Copyright (c) Steve Scherf et al.
# Submitted via: OrangeCD 5.2
#
DISCID=11074604
DTITLE=Lefthand Freddy and the aces - The Twist Blues
DYEAR=1900
DGENRE=Blues
TTITLE0=The Twist Blues
TTITLE1=Heat or Eat
TTITLE2=Waistin´ Time
TTITLE3=Loretta
EXTD=
EXTT0=
EXTT1=
EXTT2=
EXTT3=
PLAYORDER=
